<?xml version="1.0" standalone="no"?>
<!DOCTYPE svg PUBLIC "-//W3C//DTD SVG 20010904//EN"
 "http://www.w3.org/TR/2001/REC-SVG-20010904/DTD/svg10.dtd">
<svg version="1.0" xmlns="http://www.w3.org/2000/svg"
 width="32.000000pt" height="32.000000pt" viewBox="0 0 32.000000 32.000000"
 preserveAspectRatio="xMidYMid meet">

<g transform="translate(0.000000,32.000000) scale(0.100000,-0.100000)"
fill="#000000" stroke="none">
<path d="M108 305 c-8 -9 1 -66 13 -80 5 -5 10 -23 10 -40 2 -25 2 -26 6 -6 3
13 0 33 -6 45 -6 12 -12 36 -13 54 -2 19 -6 31 -10 27z"/>
<path d="M275 302 c-11 -8 -12 -25 -1 -64 9 -30 22 -36 29 -15 2 6 3 -1 1 -18
-3 -16 -10 -33 -17 -37 -9 -6 -9 -8 1 -8 21 0 33 48 24 98 -7 45 -18 58 -37
44z"/>
<path d="M169 273 c-5 -16 -11 -33 -13 -39 -2 -6 -1 -35 4 -65 4 -30 8 -42 9
-26 1 20 6 27 22 27 19 0 19 1 4 16 -13 13 -15 27 -10 65 8 54 0 64 -16 22z"/>
<path d="M93 210 c0 -36 2 -50 4 -32 2 17 2 47 0 65 -2 17 -4 3 -4 -33z"/>
<path d="M10 246 c0 -15 30 -44 30 -30 1 5 7 -2 15 -16 17 -30 21 -6 5 34 -10
28 -50 37 -50 12z"/>
<path d="M215 249 c-4 -6 -4 -13 -1 -16 3 -4 6 -1 6 5 0 6 8 13 18 15 15 4 15
5 0 6 -9 0 -20 -4 -23 -10z"/>
<path d="M104 145 c-10 -31 -8 -37 18 -69 20 -25 25 -37 16 -42 -8 -5 -6 -10
8 -15 28 -11 46 -11 39 1 -8 13 11 13 38 -1 22 -12 22 -12 3 10 -11 11 -15 21
-9 21 5 0 18 -9 28 -20 10 -11 25 -20 33 -20 12 0 10 6 -8 25 -12 13 -28 23
-34 22 -6 -1 -10 5 -8 13 2 13 0 12 -10 -1 -13 -17 -52 -19 -65 -4 -5 4 -2 5
4 1 7 -4 3 8 -10 27 -25 38 -35 41 -17 5 11 -22 10 -22 -5 -3 -10 13 -13 29
-9 52 8 43 2 42 -12 -2z"/>
<path d="M240 170 c-23 -7 -23 -8 -3 -9 12 -1 25 4 28 9 3 6 5 10 3 9 -2 -1
-14 -5 -28 -9z"/>
<path d="M14 135 c-19 -45 -18 -57 6 -87 25 -32 60 -39 82 -17 15 16 15 18 -3
35 -10 9 -16 22 -12 28 3 6 0 5 -8 -1 -19 -18 -28 -16 -39 10 -6 15 -9 17 -9
6 -1 -21 25 -43 39 -34 5 3 10 0 10 -9 0 -8 6 -17 13 -19 6 -3 -2 -6 -20 -6
-36 -1 -53 20 -53 64 0 14 5 35 10 46 6 10 8 19 5 19 -3 0 -13 -16 -21 -35z"/>
<path d="M46 155 c-9 -26 -7 -32 5 -12 6 10 9 21 6 23 -2 3 -7 -2 -11 -11z"/>
<path d="M190 152 c0 -7 -1 -15 -2 -19 -2 -3 5 -7 15 -9 15 -2 16 0 5 14 -7 9
-14 19 -15 21 -2 2 -3 -1 -3 -7z"/>
<path d="M236 135 c-3 -9 -6 -24 -5 -33 0 -9 5 -4 10 12 9 32 6 48 -5 21z"/>
<path d="M276 115 c4 -8 8 -15 10 -15 2 0 4 7 4 15 0 8 -4 15 -10 15 -5 0 -7
-7 -4 -15z"/>
<path d="M155 99 c4 -5 11 -7 16 -4 5 4 9 -1 9 -11 0 -14 3 -14 15 -4 19 15
17 17 -18 24 -16 3 -25 1 -22 -5z"/>
<path d="M258 83 c7 -3 16 -2 19 1 4 3 -2 6 -13 5 -11 0 -14 -3 -6 -6z"/>
</g>
</svg>
