<?xml version="1.0" standalone="no"?>
<!DOCTYPE svg PUBLIC "-//W3C//DTD SVG 20010904//EN"
 "http://www.w3.org/TR/2001/REC-SVG-20010904/DTD/svg10.dtd">
<svg version="1.0" xmlns="http://www.w3.org/2000/svg"
 width="32.000000pt" height="32.000000pt" viewBox="0 0 32.000000 32.000000"
 preserveAspectRatio="xMidYMid meet">

<g transform="translate(0.000000,32.000000) scale(0.100000,-0.100000)"
fill="#000000" stroke="none">
<path d="M47 309 c-21 -12 -50 -66 -39 -73 5 -3 23 4 41 15 l34 20 -7 -28 c-4
-15 -9 -44 -11 -63 -2 -19 -1 -24 1 -10 3 14 9 36 14 50 5 14 11 42 15 63 5
31 3 37 -12 37 -10 0 -26 -5 -36 -11z m1 -50 c-31 -20 -39 -1 -10 27 16 17 17
17 20 -1 2 -9 -2 -21 -10 -26z"/>
<path d="M161 299 c-31 -19 -33 -23 -28 -60 3 -21 2 -39 -2 -39 -4 0 -8 17 -9
37 -2 21 -8 42 -14 48 -8 7 -9 5 -4 -8 3 -10 6 -34 6 -54 0 -28 8 -41 40 -70
22 -20 37 -40 34 -44 -3 -5 -1 -9 5 -9 11 0 9 -35 -3 -62 -16 -35 -96 -31 -96
5 0 7 4 7 12 -1 7 -7 16 -12 22 -12 5 0 2 6 -8 13 -16 12 -17 16 -5 35 8 13
21 21 29 20 20 -4 26 -48 8 -60 -10 -8 -10 -9 2 -5 8 2 16 15 18 30 2 19 -4
30 -24 44 -36 23 -60 27 -43 7 6 -8 9 -17 5 -21 -3 -3 -6 -1 -6 6 0 7 -4 9
-10 6 -5 -3 -10 -21 -10 -39 0 -37 25 -66 59 -66 28 0 71 42 71 70 0 26 -27
80 -40 80 -6 0 -10 5 -10 11 0 6 7 8 16 5 8 -3 22 1 30 9 9 8 24 15 35 15 14
0 19 7 18 28 -1 17 -3 20 -6 9 -2 -9 -17 -24 -33 -32 -26 -13 -29 -13 -33 3
-4 15 -5 15 -6 1 -1 -18 -27 -33 -42 -23 -5 3 -3 15 6 27 8 12 15 30 15 40 0
24 63 50 101 42 22 -5 29 -3 29 8 0 32 -81 36 -129 6z m104 1 c3 -6 -1 -7 -10
-4 -9 4 -36 -1 -60 -10 -34 -14 -45 -23 -48 -44 l-4 -27 -2 27 c-1 18 7 33 25
47 28 22 88 28 99 11z"/>
<path d="M285 270 c-3 -5 1 -10 9 -10 9 0 16 5 16 10 0 6 -4 10 -9 10 -6 0
-13 -4 -16 -10z"/>
<path d="M171 246 c10 -9 69 -36 69 -32 0 6 -55 36 -66 36 -4 0 -5 -2 -3 -4z"/>
</g>
</svg>
